#N canvas 573 430 450 296 10;
#X obj 223 -14 sendOSC;
#X msg 207 -126 connect localhost 12001;
#X obj 17 -110 *~;
#X obj 50 -70 line~;
#X msg 50 -91 \$1 20;
#X obj 74 -176 vsl 10 80 0 1 0 0 empty empty empty 0 -9 0 10 -262144
-1 -1 7900 1;
#X obj 17 -214 adc~;
#X obj 17 -73 dac~;
#X obj 59 -201 pvu~;
#X floatatom 123 -111 5 0 0 0 - - -;
#X obj 124 -178 + 70;
#X obj 132 -144 * 2;
#X obj 198 -201 fiddle~ 1024;
#X floatatom 236 -170 5 0 0 0 - - -;
#X obj 288 -166 int;
#X msg 103 -64 send /1 \$1;
#X msg 240 -65 send /2 \$1;
#X connect 1 0 0 0;
#X connect 2 0 7 0;
#X connect 2 0 7 1;
#X connect 3 0 2 1;
#X connect 4 0 3 0;
#X connect 5 0 4 0;
#X connect 6 0 2 0;
#X connect 6 0 8 0;
#X connect 6 0 12 0;
#X connect 6 1 2 0;
#X connect 6 1 8 0;
#X connect 6 1 12 0;
#X connect 8 0 10 0;
#X connect 9 0 15 0;
#X connect 10 0 11 0;
#X connect 11 0 9 0;
#X connect 12 2 13 0;
#X connect 13 0 14 0;
#X connect 14 0 16 0;
#X connect 15 0 0 0;
#X connect 16 0 0 0;
