#N canvas 696 152 450 300 10;
#X obj 68 18 dumpOSC 12001;
#X obj 59 67 print;
#X obj 75 224 noteout;
#X obj 75 164 makenote 130 100;
#X obj 107 44 route entrada;
#X floatatom 109 72 5 0 0 0 - - -;
#X obj 110 104 + 48;
#X connect 0 0 1 0;
#X connect 0 0 4 0;
#X connect 3 0 2 0;
#X connect 3 1 2 1;
#X connect 4 0 5 0;
#X connect 5 0 6 0;
#X connect 6 0 3 0;
